# xmcd
#
# Track frame offsets:
#	150
#	13501
#	25653
#	37306
#	48618
#	60603
#	73132
#	86152
#	95898
#	108861
#	121284
#	132807
#	143296
#	151880
#	164319
#	174850
#
# Disc length: 2513 seconds
#
# Revision: 0
# Processed by: cddbd v1.5PL3 Copyright (c) Steve Scherf et al.
# Submitted via: dBpowerAMP V4.0
#
DISCID=d109cf10
DTITLE=Rock Island Line - The Very Best Of
DYEAR=1998
DGENRE=Teddyboy
TTITLE0=Choo Choo Ch´Boogie
TTITLE1=Go ´Way Hound Dog
TTITLE2=Teenage Boogie
TTITLE3=Boppin´ The Blues
TTITLE4=Ice Cream
TTITLE5=Crossword Puzzle
TTITLE6=If I Ain´t Home
TTITLE7=Barkin´ Up The Wrong Tree
TTITLE8=Justine
TTITLE9=Maybe That´s Why I Care
TTITLE10=Ain´t Got Money
TTITLE11=Boppin´ At The Hardrock
TTITLE12=Baby Says
TTITLE13=Last Train To San Fernando
TTITLE14=Peepin´ Eyes
TTITLE15=Right String Baby
EXTD=
EXTT0=
EXTT1=
EXTT2=
EXTT3=
EXTT4=
EXTT5=
EXTT6=
EXTT7=
EXTT8=
EXTT9=
EXTT10=
EXTT11=
EXTT12=
EXTT13=
EXTT14=
EXTT15=
PLAYORDER=
